HIERARCHY
ROOT RootJoint
{
    OFFSET   0.000000   0.000000   0.000000
    CHANNELS 6 Xposition Yposition Zposition Xrotation Yrotation Zrotation
    JOINT pelvis_lowerback
    {
        OFFSET   0.000000   0.093605   0.000000
        CHANNELS 3 Xrotation Yrotation Zrotation
        JOINT lowerback_torso
        {
            OFFSET   0.000000   0.100000   0.000000
            CHANNELS 3 Xrotation Yrotation Zrotation
            JOINT torso_head
            {
                OFFSET   0.000000   0.282350   0.000000
                CHANNELS 3 Xrotation Yrotation Zrotation
                End Site
                {
                    OFFSET   0.000000   0.192650   0.000000
                }
            }
            JOINT rTorso_Clavicle
            {
                OFFSET  -0.001000   0.157500   0.000000
                CHANNELS 3 Xrotation Yrotation Zrotation
                JOINT rShoulder
                {
                    OFFSET  -0.117647   0.000000   0.000000
                    CHANNELS 3 Xrotation Yrotation Zrotation
                    JOINT rElbow
                    {
                        OFFSET  -0.245000   0.000000   0.000000
                        CHANNELS 3 Xrotation Yrotation Zrotation
                        JOINT rWrist
                        {
                            OFFSET  -0.240000   0.000000   0.000000
                            CHANNELS 3 Xrotation Yrotation Zrotation
                            End Site
                            {
                                OFFSET  -0.116353  -0.002500   0.000000
                            }
                        }
                    }
                }
            }
            JOINT lTorso_Clavicle
            {
                OFFSET   0.001000   0.157500   0.000000
                CHANNELS 3 Xrotation Yrotation Zrotation
                JOINT lShoulder
                {
                    OFFSET   0.117647   0.000000   0.000000
                    CHANNELS 3 Xrotation Yrotation Zrotation
                    JOINT lElbow
                    {
                        OFFSET   0.245000   0.000000   0.000000
                        CHANNELS 3 Xrotation Yrotation Zrotation
                        JOINT lWrist
                        {
                            OFFSET   0.240000   0.000000   0.000000
                            CHANNELS 3 Xrotation Yrotation Zrotation
                            End Site
                            {
                                OFFSET   0.116353  -0.002500   0.000000
                            }
                        }
                    }
                }
            }
        }
    }
    JOINT rHip
    {
        OFFSET  -0.100000  -0.051395   0.000000
        CHANNELS 3 Xrotation Yrotation Zrotation
        JOINT rKnee
        {
            OFFSET   0.000000  -0.410000   0.000000
            CHANNELS 3 Xrotation Yrotation Zrotation
            JOINT rAnkle
            {
                OFFSET   0.000000  -0.390000   0.000000
                CHANNELS 3 Xrotation Yrotation Zrotation
                JOINT rToeJoint
                {
                    OFFSET   0.000000  -0.050000   0.130000
                    CHANNELS 3 Xrotation Yrotation Zrotation
                    End Site
                    {
                        OFFSET  -0.010000   0.002000   0.060000
                    }
                }
            }
        }
    }
    JOINT lHip
    {
        OFFSET   0.100000  -0.051395   0.000000
        CHANNELS 3 Xrotation Yrotation Zrotation
        JOINT lKnee
        {
            OFFSET   0.000000  -0.410000   0.000000
            CHANNELS 3 Xrotation Yrotation Zrotation
            JOINT lAnkle
            {
                OFFSET   0.000000  -0.390000   0.000000
                CHANNELS 3 Xrotation Yrotation Zrotation
                JOINT lToeJoint
                {
                    OFFSET   0.000000  -0.050000   0.130000
                    CHANNELS 3 Xrotation Yrotation Zrotation
                    End Site
                    {
                        OFFSET   0.010000   0.002000   0.060000
                    }
                }
            }
        }
    }
}
MOTION
Frames: 14
Frame Time:   0.008333
 -1.799249   0.899071   5.062075  -1.592739  -2.783819  -2.151046  13.228634  -8.465976   3.502622  16.361910 -10.443739   5.156764  -3.052069   1.459847  -2.293050  10.857599  -7.442674   4.971380  27.132705  -0.317228  53.690204  -0.001101  13.640651   0.004412   1.151928   0.699350   8.335408   0.727895  -3.434057   1.128421  -8.473735  -9.197323 -36.392737  -0.089806 -67.272464  -0.076990  -1.297449 -10.054272   1.323203 -38.988844   6.640740   6.310637  37.275585   0.066245   0.002354 -10.276852   4.051478   2.669980  -1.573185  -0.005082   0.003840 -10.511996  -3.230411 -10.686910  55.278296  -0.005927  -0.002459  -5.968071  -4.568009  -5.473923 -14.794135  -0.013001  -0.006543
 -1.795892   0.898677   5.079556  -2.426395  -2.545799  -1.987017  13.115089  -8.427687   3.190187  15.953742 -10.285002   5.130687  -2.630515   1.569740  -2.219566  10.784942  -7.577968   4.986821  26.719774  -0.584289  53.540681  -0.002603  14.094723   0.006572   1.128554   0.362736   8.244375   0.924838  -3.545753   1.114848  -8.211791  -9.850827 -36.659142  -0.090419 -68.558308  -0.080177  -1.363817  -9.922836   1.159928 -37.868708   6.238602   6.575550  36.429022   0.058132   0.002516 -10.855966   4.153445   2.146443  -1.445361  -0.004141   0.003153 -10.355243  -3.318341 -10.531152  57.573591  -0.010359   0.004958  -6.184844  -4.154379  -5.120175 -13.722930  -0.017524   0.001276
 -1.792872   0.897750   5.097040  -3.291664  -2.279392  -1.834677  12.988383  -8.344298   2.817494  15.566136 -10.114830   5.066826  -2.217110   1.675039  -2.159705  10.679561  -7.679660   5.014154  26.299300  -0.808939  53.397389  -0.004240  14.540034   0.008274   1.088120   0.144844   8.147370   1.101856  -3.665834   1.107890  -7.976232 -10.482339 -36.904728  -0.094302 -69.774392  -0.086977  -1.425003  -9.879179   0.941185 -36.605946   5.870238   6.828765  35.895496   0.049603   0.002173 -11.384425   4.251164   1.657670  -1.320768  -0.003440   0.002600 -10.333575  -3.430372 -10.188875  59.842578  -0.015563   0.014184  -6.394260  -3.757395  -4.784252 -12.827577  -0.020933   0.007204
 -1.789996   0.896287   5.114516  -4.146041  -2.025568  -1.654205  12.829119  -8.220892   2.396071  15.166199  -9.930365   4.944789  -1.832625   1.775030  -2.115879  10.555984  -7.750721   5.037125  25.883882  -1.002237  53.252390  -0.005818  14.966615   0.009504   1.038807   0.004156   8.030261   1.268780  -3.778634   1.092029  -7.757220 -11.075183 -37.138031  -0.100449 -70.912175  -0.096027  -1.483816  -9.868792   0.714015 -35.239543   5.551178   7.033275  35.501192   0.041861   0.001840 -11.872625   4.345790   1.202081  -1.200471  -0.002899   0.002129 -10.438286  -3.549204  -9.747612  61.954833  -0.020257   0.023076  -6.591713  -3.386698  -4.467219 -12.012809  -0.023599   0.011710
 -1.787169   0.894254   5.131969  -4.981905  -1.793724  -1.442620  12.643813  -8.062579   1.944002  14.754219  -9.730187   4.774146  -1.478983   1.869463  -2.084516  10.422332  -7.796582   5.046718  25.479569  -1.171197  53.102212  -0.007229  15.372726   0.010297   0.984214  -0.082502   7.889079   1.428823  -3.879079   1.068579  -7.550862 -11.627331 -37.359451  -0.107917 -71.974309  -0.106017  -1.540955  -9.867575   0.491077 -33.801368   5.277257   7.186263  35.197623   0.035078   0.001567 -12.325098   4.436730   0.777283  -1.085520  -0.002472   0.001722 -10.653867  -3.669582  -9.243925  63.896909  -0.023927   0.030831  -6.779083  -3.040955  -4.168421 -11.270294  -0.025431   0.015011
 -1.784337   0.891620   5.149388  -5.799928  -1.584757  -1.204245  12.441962  -7.874551   1.477144  14.338102  -9.514729   4.568275  -1.153998   1.958385  -2.062514  10.283858  -7.821624   5.039709  25.089738  -1.320601  52.945621  -0.008404  15.757708   0.010703   0.926734  -0.130142   7.722690   1.582386  -3.965741   1.040996  -7.355859 -12.139640 -37.567683  -0.115928 -72.964983  -0.115988  -1.596333  -9.866771   0.277976 -32.317368   5.043256   7.292675  34.964780   0.029213   0.001340 -12.744891   4.523822   0.381129  -0.976327  -0.002127   0.001376 -10.961979  -3.790536  -8.700064  65.677781  -0.026444   0.037136  -6.957066  -2.718582  -3.887095 -10.593794  -0.026444   0.017315
 -1.781462   0.888356   5.166765  -6.602068  -1.396718  -0.944251  12.231884  -7.662222   1.007961  13.925588  -9.285741   4.339227  -0.854813   2.041956  -2.047493  10.144150  -7.829601   5.015829  24.716297  -1.453892  52.782921  -0.009307  16.121498   0.010781   0.868099  -0.149569   7.532238   1.729200  -4.038641   1.012221  -7.171649 -12.613888 -37.761730  -0.123861 -73.888611  -0.125283  -1.649749  -9.862926   0.078301 -30.809521   4.844108   7.358852  34.790017   0.024182   0.001141 -13.134558   4.607052   0.011644  -0.873042  -0.001845   0.001089 -11.344808  -3.912195  -8.132438  67.310425  -0.027865   0.041919  -7.126050  -2.418043  -3.622446  -9.977475  -0.026726   0.018803
 -1.778919   0.884410   5.183944  -7.521772  -0.861316  -0.963203  12.250748  -7.608196   0.813352  13.571130  -9.141926   4.296162  -0.598500   1.924271  -2.093844   9.950742  -7.749788   4.863963  24.358019  -1.433480  52.636132  -0.011878  16.717704   0.011194   0.924286  -0.397851   7.338820   1.735816  -4.122050   0.979857  -6.901004 -12.953462 -38.138818  -0.123159 -74.569434  -0.126088  -1.633579 -10.002987   0.067816 -29.302064   4.591531   7.599466  35.787437   0.016093   0.004190 -14.174873   4.471979  -0.916637  -0.638801  -0.000613   0.001250 -11.957899  -4.272029  -7.095945  69.208124  -0.029434   0.053337  -7.581075  -1.827290  -3.381924  -9.584762  -0.025291   0.020245
 -1.776400   0.879880   5.201085  -8.475989  -0.253523  -0.996313  12.293995  -7.539370   0.647060  13.274085  -8.989739   4.274893  -0.352289   1.802914  -2.130452   9.725405  -7.632336   4.723303  23.982435  -1.383036  52.484674  -0.013989  17.296886   0.010967   0.969779  -0.536851   7.127389   1.765716  -4.203512   0.908978  -6.630593 -13.265354 -38.513277  -0.121551 -75.184940  -0.125793  -1.617792 -10.040801   0.042861 -27.655876   4.400317   7.810735  37.015245   0.009999   0.008541 -15.142023   4.357933  -1.786813  -0.463646   0.000116   0.001504 -12.720560  -4.663366  -5.934134  70.969239  -0.029295   0.063768  -8.010835  -1.271085  -3.149235  -9.252182  -0.023549   0.020979
 -1.773800   0.874703   5.218205  -9.432487   0.359580  -0.991098  12.329903  -7.431207   0.477565  12.998412  -8.810789   4.235890  -0.119624   1.689036  -2.164434   9.489867  -7.496343   4.589350  23.608769  -1.318466  52.333653  -0.015595  17.848553   0.010304   1.004709  -0.603595   6.902346   1.813256  -4.270070   0.819804  -6.363012 -13.552131 -38.875973  -0.120307 -75.753045  -0.125542  -1.603408 -10.031645  -0.022862 -25.896242   4.261387   7.959015  38.282290   0.005858   0.012358 -16.040894   4.264636  -2.600754  -0.296466   0.000651   0.001772 -13.615770  -5.054358  -4.751780  72.556449  -0.027842   0.071380  -8.416633  -0.752323  -2.926080  -8.953892  -0.021742   0.021222
 -1.771079   0.868817   5.235313 -10.383619   0.953990  -0.941918  12.354351  -7.282727   0.303971  12.733910  -8.602959   4.175084   0.097499   1.583229  -2.197894   9.253593  -7.348710   4.453961  23.244917  -1.246944  52.180755  -0.016732  18.370718   0.009381   1.032911  -0.624967   6.664155   1.872194  -4.316994   0.724751  -6.101205 -13.812629 -39.220290  -0.119498 -76.279139  -0.125343  -1.590198  -9.997278  -0.109774 -24.059589   4.164731   8.050002  39.539964   0.003197   0.015228 -16.877935   4.188987  -3.361771  -0.137741   0.001034   0.002000 -14.614723  -5.441482  -3.588041  73.982429  -0.025606   0.076034  -8.800092  -0.269028  -2.712897  -8.687004  -0.019891   0.020997
 -1.768220   0.862182   5.252416 -11.327450   1.519338  -0.853040  12.368103  -7.098718   0.130043  12.478652  -8.368869   4.096805   0.299311   1.485067  -2.230773   9.021153  -7.193150   4.313006  22.894313  -1.172325  52.024028  -0.017438  18.863242   0.008332   1.056842  -0.616808   6.410649   1.937870  -4.344058   0.630991  -5.847430 -14.047253 -39.542612  -0.118888 -76.766567  -0.124974  -1.577745  -9.944487  -0.200607 -22.179165   4.101964   8.094801  40.771021   0.001599   0.017166 -17.657890   4.128562  -4.073047   0.011860   0.001297   0.002176 -15.687010  -5.826398  -2.461784  75.265906  -0.022996   0.078080  -9.162210   0.181062  -2.509814  -8.448399  -0.018039   0.020385
 -1.765217   0.854771   5.269515 -12.262933   2.050159  -0.730249  12.372816  -6.885373  -0.040540  12.232614  -8.112824   4.006479   0.486697   1.394012  -2.262624   8.794778  -7.032234   4.165555  22.558302  -1.096678  51.863209  -0.017753  19.326900   0.007254   1.077961  -0.588395   6.141227   2.007102  -4.352983   0.542263  -5.603151 -14.257509 -39.841718  -0.118191 -77.218193  -0.124210  -1.565731  -9.876196  -0.285156 -20.283938   4.065985   8.103158  41.966462   0.000742   0.018289 -18.384860   4.081284  -4.737628   0.152072   0.001465   0.002295 -16.804921  -6.210673  -1.383531  76.424642  -0.020298   0.078004  -9.503860   0.600173  -2.316805  -8.235067  -0.016231   0.019477
 -1.762026   0.849973   5.285100 -13.249709   2.480134  -1.064248  12.789777  -6.546973   0.244653  12.060568  -7.857173   4.122967   0.563352   1.230885  -2.221152   8.443544  -6.668019   4.119509  22.195979  -0.654456  51.537985  -0.017770  19.887388   0.003499   1.135285  -0.627958   5.796076   1.945550  -4.455483   0.175739  -5.393456 -14.318740 -40.410829  -0.083733 -76.949073  -0.086756  -1.481652 -10.060953  -0.127418 -19.372498   3.699385   8.461245  44.321853   0.001349   0.018964 -19.135017   3.696715  -5.508058   0.487899   0.002933   0.001697 -17.752772  -6.664863   0.077273  76.237751  -0.015692   0.060109  -9.970978   0.971492  -2.084384  -7.694766  -0.017190   0.022887
